<?xml version="1.0" encoding="UTF-8" standalone="no" ?>
<!DOCTYPE svg PUBLIC "-//W3C//DTD SVG 1.1//EN" "http://www.w3.org/Graphics/SVG/1.1/DTD/svg11.dtd">
<svg xmlns="http://www.w3.org/2000/svg" xmlns:xlink="http://www.w3.org/1999/xlink" version="1.1" width="1080" height="1080" viewBox="0 0 1080 1080" xml:space="preserve">
<desc>Created with Fabric.js 5.2.4</desc>
<defs>
</defs>
<rect x="0" y="0" width="100%" height="100%" fill="transparent"></rect>
<g transform="matrix(1 0 0 1 540 540)" id="a586d00f-a2ed-4b81-bd7c-bd369481d14b"  >
</g>
<g transform="matrix(1 0 0 1 540 540)" id="9138f3a2-79bd-4b7e-8946-cfe2fe9e2522"  >
<rect style="stroke: none; stroke-width: 1; stroke-dasharray: none; stroke-linecap: butt; stroke-dashoffset: 0; stroke-linejoin: miter; stroke-miterlimit: 4; fill: rgb(255,255,255); fill-rule: nonzero; opacity: 1; visibility: hidden;" vector-effect="non-scaling-stroke"  x="-540" y="-540" rx="0" ry="0" width="1080" height="1080" />
</g>
<g transform="matrix(1 0 0 1 540 524.07)"  >
<path style="stroke: none; stroke-width: 1; stroke-dasharray: none; stroke-linecap: round; stroke-dashoffset: 0; stroke-linejoin: round; stroke-miterlimit: 4; fill: none; fill-rule: nonzero; opacity: 1;" vector-effect="non-scaling-stroke"  transform=" translate(-12, -12)" d="M 0 0 L 24 0 L 24 24 L 0 24 z" stroke-linecap="round" />
</g>
<g transform="matrix(1 0 0 1 540 530)"  >
<path style="stroke: rgb(255,255,255); stroke-width: 1; stroke-dasharray: none; stroke-linecap: round; stroke-dashoffset: 0; stroke-linejoin: round; stroke-miterlimit: 4; fill: none; fill-rule: nonzero; opacity: 1;" vector-effect="non-scaling-stroke"  transform=" translate(-12, -12)" d="M 12 12 M 11 12 C 11 12.552284749830793 11.447715250169207 13 12 13 C 12.552284749830793 13 13 12.552284749830793 13 12 C 13 11.447715250169207 12.552284749830793 11 12 11 C 11.447715250169207 11 11 11.447715250169207 11 12" stroke-linecap="round" />
</g>
<g transform="matrix(1 0 0 1 540 529)"  >
<path style="stroke: rgb(255,255,255); stroke-width: 1; stroke-dasharray: none; stroke-linecap: round; stroke-dashoffset: 0; stroke-linejoin: round; stroke-miterlimit: 4; fill: none; fill-rule: nonzero; opacity: 1;" vector-effect="non-scaling-stroke"  transform=" translate(-12, -10.46)" d="M 16.616 13.924 C 17.487906221691624 11.832603037105395 16.844417124788468 9.41630672713283 15.047836852998465 8.035560174414229 C 13.251256581208462 6.654813621695627 10.750743418791536 6.654813621695627 8.954163147001534 8.035560174414229 C 7.157582875211531 9.41630672713283 6.514093778308373 11.832603037105397 7.385999999999999 13.924" stroke-linecap="round" />
</g>
<g transform="matrix(1 0 0 1 540 528)"  >
<path style="stroke: rgb(255,255,255); stroke-width: 1; stroke-dasharray: none; stroke-linecap: round; stroke-dashoffset: 0; stroke-linejoin: round; stroke-miterlimit: 4; fill: none; fill-rule: nonzero; opacity: 1;" vector-effect="non-scaling-stroke"  transform=" translate(-12, -9.24)" d="M 20.307 15.469 C 21.87576366210657 11.704556251048388 20.717171517164857 7.355735747186618 17.48346284954619 4.870743912283576 C 14.24975418192752 2.385752077380534 9.749245818072477 2.385752077380536 6.5155371504538095 4.870743912283578 C 3.2818284828351416 7.355735747186619 2.1232363378934274 11.704556251048388 3.692 15.469" stroke-linecap="round" />
</g>
<g transform="matrix(1 0 0 1 540 535.61)"  >
<path style="stroke: rgb(255,255,255); stroke-width: 1; stroke-dasharray: none; stroke-linecap: round; stroke-dashoffset: 0; stroke-linejoin: round; stroke-miterlimit: 4; fill: none; fill-rule: nonzero; opacity: 1;" vector-effect="non-scaling-stroke"  transform=" translate(-12, -16.5)" d="M 9 21 L 12 12 L 15 21" stroke-linecap="round" />
</g>
<g transform="matrix(1 0 0 1 540 538.12)"  >
<path style="stroke: rgb(255,255,255); stroke-width: 1; stroke-dasharray: none; stroke-linecap: round; stroke-dashoffset: 0; stroke-linejoin: round; stroke-miterlimit: 4; fill: none; fill-rule: nonzero; opacity: 1;" vector-effect="non-scaling-stroke"  transform=" translate(-12, -19)" d="M 10 19 L 14 19" stroke-linecap="round" />
</g>
</svg>